REM DIRINDEX 1\2,1\3
REM DIRNAME folder01,folder02,folder03
TITLE ""
FILE "43.mp3" MP3
  TRACK 01 AUDIO
    TITLE "0:"
    INDEX 01 00:00:00
  TRACK 02 AUDIO
    TITLE "3:cjc132_0808"
    INDEX 01 00:00:13
  TRACK 03 AUDIO
    TITLE "0:"
    INDEX 01 00:01:36
  TRACK 04 AUDIO
    TITLE "2:cjc132_0809"
    INDEX 01 00:02:08
  TRACK 05 AUDIO
    TITLE "0:"
    INDEX 01 00:03:37
  TRACK 06 AUDIO
    TITLE "2:cjc132_0810"
    INDEX 01 00:04:13
  TRACK 07 AUDIO
    TITLE "0:"
    INDEX 01 00:05:34
  TRACK 08 AUDIO
    TITLE "2:cjc132_0811"
    INDEX 01 00:06:08
  TRACK 09 AUDIO
    TITLE "0:"
    INDEX 01 00:07:33
  TRACK 10 AUDIO
    TITLE "2:cjc132_0812"
    INDEX 01 00:08:09
  TRACK 11 AUDIO
    TITLE "0:"
    INDEX 01 00:09:55
  TRACK 12 AUDIO
    TITLE "2:cjc132_0813"
    INDEX 01 00:10:29
  TRACK 13 AUDIO
    TITLE "0:"
    INDEX 01 00:12:01
  TRACK 14 AUDIO
    TITLE "2:cjc132_0814"
    INDEX 01 00:12:52
  TRACK 15 AUDIO
    TITLE "0:"
    INDEX 01 00:14:49
  TRACK 16 AUDIO
    TITLE "2:cjc132_0815"
    INDEX 01 00:15:25
  TRACK 17 AUDIO
    TITLE "0:"
    INDEX 01 00:17:16
  TRACK 18 AUDIO
    TITLE "2:cjc132_0816"
    INDEX 01 00:18:25
  TRACK 19 AUDIO
    TITLE "0:"
    INDEX 01 00:19:58
  TRACK 20 AUDIO
    TITLE "2:cjc132_0817"
    INDEX 01 00:21:39
  TRACK 21 AUDIO
    TITLE "0:"
    INDEX 01 00:23:12
  TRACK 22 AUDIO
    TITLE "2:cjc132_0818"
    INDEX 01 00:25:07
  TRACK 23 AUDIO
    TITLE "0:"
    INDEX 01 00:26:58
  TRACK 24 AUDIO
    TITLE "2:cjc132_0819"
    INDEX 01 00:28:55
  TRACK 25 AUDIO
    TITLE "0:"
    INDEX 01 00:30:22
  TRACK 26 AUDIO
    TITLE "2:cjc132_0820"
    INDEX 01 00:32:13
  TRACK 27 AUDIO
    TITLE "0:"
    INDEX 01 00:33:52
  TRACK 28 AUDIO
    TITLE "2:cjc132_0821"
    INDEX 01 00:35:37
  TRACK 29 AUDIO
    TITLE "0:"
    INDEX 01 00:37:01
  TRACK 30 AUDIO
    TITLE "2:cjc132_0822"
    INDEX 01 00:38:65
  TRACK 31 AUDIO
    TITLE "0:"
    INDEX 01 00:41:00
  TRACK 32 AUDIO
    TITLE "2:cjc132_0823"
    INDEX 01 00:43:31
  TRACK 33 AUDIO
    TITLE "0:"
    INDEX 01 00:45:22
  TRACK 34 AUDIO
    TITLE "2:cjc132_0824"
    INDEX 01 00:47:36
  TRACK 35 AUDIO
    TITLE "0:"
    INDEX 01 00:48:63
  TRACK 36 AUDIO
    TITLE "2:cjc132_0825"
    INDEX 01 00:50:42
  TRACK 37 AUDIO
    TITLE "0:"
    INDEX 01 00:53:00
  TRACK 38 AUDIO
    TITLE "2:cjc132_0826"
    INDEX 01 00:55:57
  TRACK 39 AUDIO
    TITLE "0:"
    INDEX 01 00:57:39
  TRACK 40 AUDIO
    TITLE "2:cjc132_0827"
    INDEX 01 00:59:47
  TRACK 41 AUDIO
    TITLE "0:"
    INDEX 01 01:01:60
  TRACK 42 AUDIO
    TITLE "2:cjc132_0828"
    INDEX 01 01:04:21
  TRACK 43 AUDIO
    TITLE "0:"
    INDEX 01 01:05:71
  TRACK 44 AUDIO
    TITLE "2:cjc132_0829"
    INDEX 01 01:07:66
  TRACK 45 AUDIO
    TITLE "0:"
    INDEX 01 01:09:30
  TRACK 46 AUDIO
    TITLE "2:cjc132_0830"
    INDEX 01 01:11:21
  TRACK 47 AUDIO
    TITLE "0:"
    INDEX 01 01:12:54
  TRACK 48 AUDIO
    TITLE "2:cjc132_0831"
    INDEX 01 01:14:39
  TRACK 49 AUDIO
    TITLE "0:"
    INDEX 01 01:16:20
  TRACK 50 AUDIO
    TITLE "2:cjc132_0832"
    INDEX 01 01:18:31
  TRACK 51 AUDIO
    TITLE "0:"
    INDEX 01 01:20:28
  TRACK 52 AUDIO
    TITLE "2:cjc132_0833"
    INDEX 01 01:22:46
  TRACK 53 AUDIO
    TITLE "0:"
    INDEX 01 01:24:22
  TRACK 54 AUDIO
    TITLE "2:cjc132_0834"
    INDEX 01 01:26:25
  TRACK 55 AUDIO
    TITLE "0:"
    INDEX 01 01:28:10
  TRACK 56 AUDIO
    TITLE "2:cjc132_0835"
    INDEX 01 01:30:18
  TRACK 57 AUDIO
    TITLE "0:"
    INDEX 01 01:32:19
  TRACK 58 AUDIO
    TITLE "2:cjc132_0836"
    INDEX 01 01:34:42
  TRACK 59 AUDIO
    TITLE "0:"
    INDEX 01 01:36:31
  TRACK 60 AUDIO
    TITLE "2:cjc132_0837"
    INDEX 01 01:38:40
  TRACK 61 AUDIO
    TITLE "0:"
    INDEX 01 01:40:03
  TRACK 62 AUDIO
    TITLE "2:cjc132_0838"
    INDEX 01 01:41:67
  TRACK 63 AUDIO
    TITLE "0:"
    INDEX 01 01:44:15
  TRACK 64 AUDIO
    TITLE "2:cjc132_0839"
    INDEX 01 01:46:65
  TRACK 65 AUDIO
    TITLE "0:"
    INDEX 01 01:48:52
  TRACK 66 AUDIO
    TITLE "2:cjc132_0840"
    INDEX 01 01:50:62
  TRACK 67 AUDIO
    TITLE "0:"
    INDEX 01 01:52:53
  TRACK 68 AUDIO
    TITLE "2:cjc132_0841"
    INDEX 01 01:54:66
  TRACK 69 AUDIO
    TITLE "0:"
    INDEX 01 01:56:30
  TRACK 70 AUDIO
    TITLE "2:cjc132_0842"
    INDEX 01 01:58:19
  TRACK 71 AUDIO
    TITLE "0:"
    INDEX 01 02:00:27
  TRACK 72 AUDIO
    TITLE "2:cjc132_0843"
    INDEX 01 02:02:56
  TRACK 73 AUDIO
    TITLE "0:"
    INDEX 01 02:04:70
  TRACK 74 AUDIO
    TITLE "2:cjc132_0844"
    INDEX 01 02:07:31
  TRACK 75 AUDIO
    TITLE "0:"
    INDEX 01 02:09:32
